<?xml version="1.0" encoding="utf-8"?>
<!-- Generator: Adobe Illustrator 23.0.0, SVG Export Plug-In . SVG Version: 6.00 Build 0)  -->
<svg version="1.1" id="Camada_1" xmlns="http://www.w3.org/2000/svg" xmlns:xlink="http://www.w3.org/1999/xlink" x="0px" y="0px"
	 viewBox="0 0 1000 954.1" style="enable-background:new 0 0 1000 954.1;" xml:space="preserve">
<style type="text/css">
	.st0{fill:none;stroke:#FFFFFF;stroke-miterlimit:10;}
	.st1{fill:none;stroke:#FFFFFF;stroke-width:0.75;stroke-miterlimit:10;}
	.st2{fill:none;}
	.st3{fill:#0F0F0F;}
	.st4{fill:#0F0F0F;stroke:#000000;stroke-width:8;stroke-miterlimit:10;}
	.st5{fill:#0F0F0F;stroke:#000000;stroke-miterlimit:10;}
	.st6{fill:#FFFFFF;stroke:#FFFFFF;stroke-miterlimit:10;}
	.st7{fill:#FFFFFF;}
</style>
<g id="Layer_1">
	<path class="st0" d="M439.3,567.7"/>
	<path class="st1" d="M377.2,540.8"/>
	<rect x="100.4" y="690.4" class="st2" width="17.5" height="43.8"/>
	<g>
		<path class="st3" d="M107.1,773.3c-26.4-0.1-48.9-9.3-67.6-27.9c-18.8-18.8-28.1-41.4-28.1-67.7s9.3-48.9,28.1-67.8
			c18.8-18.8,41.4-28.2,67.6-28.2L107,582c29.2,0,52.4,12.9,67.9,28l-27.1,27.1c-11.4-11.2-25-16.9-40.6-16.9
			c-16,0-29.4,5.7-40.5,16.9c-11.2,11.4-16.9,25-16.9,40.7c0,15.9,5.7,29.4,16.9,40.6c11.1,11.1,24.7,16.8,40.5,16.8
			c16,0,29.5-5.7,40.7-16.9l27.1,27.1C159.5,760.8,136.5,773.3,107.1,773.3z"/>
		<path class="st3" d="M374.7,609.9c18.8,18.8,28.2,41.5,28.2,67.8c0,26.5-9.5,49-28.2,67.7c-18.8,18.6-41.4,27.9-67.7,27.9
			c-26.5-0.1-49-9.3-67.7-27.9c-18.8-18.8-28.1-41.4-28.1-67.7s9.3-48.9,28.1-67.8c18.8-18.8,41.4-28.2,67.7-28.2
			S355.8,591,374.7,609.9z M266.2,636.8c-11.2,11.4-16.9,25-16.9,40.6c0,15.9,5.7,29.4,16.9,40.6c11.1,11.1,24.7,16.8,40.6,16.8
			c15.8,0,29.2-5.6,40.5-16.8c11.3-11.1,17-24.7,17-40.6c0-15.8-5.7-29.3-17-40.6c-11.2-11.2-24.8-16.9-40.5-16.9
			C290.9,620,277.4,625.6,266.2,636.8z"/>
		<path class="st3" d="M521.2,776.2L436,583.1h40.1L521,686.6l44.9-103.4h40.6L521.2,776.2z"/>
		<path class="st3" d="M778,582.7v37.8h-75.9v38.1H759v37.8h-56.9v38.1H778v37.7H664.1V582.7H778z"/>
		<path class="st3" d="M949.2,687.5V582.6h38.1v193.2l-114-108.3v104.9h-38V579.2L949.2,687.5z"/>
		<path class="st3" d="M391,822.5c19.2-1.8,30.9-2.6,35-2.6s6.2,0.6,6.2,1.9c0,1.5-2.9,3-8.8,4.7c-5.9,1.6-20.2,3.7-42.8,6.2
			c-1.3,2.2-2.7,4.8-4.5,7.9c-3.8,6-5.8,9.6-6,10.8c-14.2,28.5-21.7,46.5-22.5,54.3c-0.2,2.2-0.4,5.1-0.4,8.6s0.9,6.4,3,8.6
			c3.5,4,8.5,4.2,14.9,0.7c6.5-3.5,15.5-10.5,27.1-20.9c11.6-10.5,21-20.7,28.2-30.7c0.9-1.3,2.2-1.5,3.8-0.7
			c3.8,1.8-2.7,11.6-19.4,29.5c-16,17.2-29.3,27.8-40,31.8c-6.2,2.2-11.4,3.4-15.8,3.4c-10,0-16.6-4.7-19.8-14.2
			c-0.5-1.8-0.7-3.9-0.7-6.4c0-8.7,4-21.9,12-39.7c-1.3,2.7-6.1,8.9-14.6,18.7c-2.2,2.5-4,2.5-5.3,0c-0.2-0.5-0.4-1.2-0.4-2.1
			c0-0.8,0.5-1.9,1.5-3.2c12.2-15.2,21.8-28,28.8-38.5c0-0.2,2.7-5.5,8.2-15.8c-2.5,0.5-5,0.7-7.7,0.7c-2.6,0-4.5-0.8-5.8-2.4
			c-1.3-1.6-1.4-3.6-0.4-5.8c1.8-4,8.4-6.2,19.8-6.7c0.2-0.5,0.7-0.7,1.5-0.7l18.7-34.8c0.9-2,2.1-4.1,3.4-6.2
			c1.3-2.1,2.2-3.8,2.8-4.8c0.6-1.2,1.3-2.3,2.1-3.6c0.7-1.3,1.4-2.1,1.9-2.6s0.9-0.9,1.5-1.5c0.9-1.5,3.9-2.2,8.8-2.2
			s8.2,1.4,9.9,4.1c0.7,1,1.2,2.7,1.2,5c0,2.4-0.8,5-2.6,7.9c-1.8,2.8-3.6,4.9-5.6,6.2s-3.4,2.6-4.1,4.1l-18,31.4L391,822.5z"/>
		<path class="st3" d="M501.3,818.5c13.4,0,20.2,6.5,20.2,19.4c0,6.7-1.9,12.2-5.6,16.5c-6.2,9.2-16.4,17.2-30.3,24.2
			c-14,6.8-25.8,10.7-35.5,11.4c-3.5,0.2-5.4-0.7-5.6-3c-0.2-0.9,0.1-1.6,0.9-1.9c0.8-0.2,1.6-0.4,2.1-0.4
			c5.8-0.5,13.1-3.3,22.1-8.2c16.7-8.9,28.9-18.2,36.6-27.7c3.3-4.5,4.8-8.8,4.8-12.9s-2-6.2-6-6.2c-3.3,0-7.6,1.4-13.1,4.1
			c-11.8,5.5-24,15-37.1,28.7c-13,13.5-21.4,26.9-25.4,39.8c-1.3,4-1.9,7.9-1.9,11.8c0,3.9,1.6,7.6,4.8,11s8.2,5.3,14.9,5.3
			c7.5,0,16.1-2,25.8-6c28.1-11.4,49.9-28.8,65.1-52c1.5-2,2.8-2.4,4.1-1.2c0.9,0.5,1.5,1.2,1.5,1.9s-0.4,1.6-1.2,2.6
			c-7.5,12.5-17,23.5-28.5,33.3c-22.2,18.9-43.8,28.5-64.7,28.5c-18,0-30.6-5.4-37.8-16.1c-2.7-4.2-4.1-9.3-4.1-15.3
			s1.6-13.1,4.8-21.3c6.2-14.2,19.5-28.8,40-43.8C473.2,825.9,489.4,818.5,501.3,818.5z"/>
		<path class="st3" d="M552.2,931.4c-4,0-8.3-1.2-12.9-3.6c-4.6-2.4-8.5-5.8-11.8-10.1c-3.3-4.4-4.8-9-4.8-14.1
			c0-4.9,1.2-9.8,3.4-14.2c4.9-10.5,13-20.6,24.2-30.5c11.1-9.9,22.7-18.3,34.7-25.2s21.4-11.3,28.5-13.1c6.9-1.8,13.8-2.6,20.4-2.6
			c6.6,0,12.3,1.7,17,5c4.7,3.4,7.1,6.9,7.1,10.7c0,1.3-0.1,2-0.4,2.2c-0.2,0.2-0.8,0.1-1.9-0.4c-2.9-4.7-9.1-7.1-18.5-7.1
			c-9.3,0-20,3-31.8,9.1c-11.9,6.1-23,13.8-33.5,23c-8.7,8.2-16.4,17.5-23,27.8c-6.6,10.4-9.9,17.9-9.9,22.7
			c0,9.2,2.6,13.9,7.9,13.9c5.3,0,13.2-4.2,23.9-12.7c17.7-15,29.8-25.9,36.3-32.9c22.9-24.7,35.3-37.1,37.1-37.1
			c2.9,0,6.6,0.8,10.8,2.6s5.6,3.9,4.1,6.4c-12.7,18-20.2,36-22.5,54.3c-0.2,2.2-0.4,5.1-0.4,8.6s0.9,6.4,3,8.6
			c3.8,4,8.8,4.2,15.3,0.7s15.5-10.5,27.1-20.9c11.6-10.5,20.9-20.7,27.8-30.7c0.9-1.3,2.1-1.6,3.4-0.9c1.3,0.6,1.9,1.2,1.9,1.7
			c0,3.8-5.9,11.9-17.7,24.5c-11.9,12.6-20.9,21.1-27.1,25.6c-11.8,8.7-22.6,13.1-32.6,13.1c-9.5,0-15.9-4.7-19.1-14.2
			c-0.7-2.9-1.2-6.4-1.2-10.1c0-11.2,2.4-23.1,7.1-35.5c-1,0.5-5.6,5.5-13.9,14.9c-8.2,9.5-17.7,18.6-28.7,27.3
			C570.7,927,561,931.4,552.2,931.4z"/>
	</g>
	<path class="st0" d="M479.5,571.8"/>
	<g>
		<path class="st4" d="M662.8,131c0,0,116.9,183.1-139.1,212.5"/>
		<ellipse class="st4" cx="505.8" cy="201.3" rx="180" ry="142.9"/>
		<path class="st4" d="M349,131c0,0-116.9,183.1,139.1,212.5"/>
		<g>
			<rect x="391.1" y="378" class="st3" width="234.4" height="108.2"/>
			<path class="st5" d="M639.3,311.1c0,0,59.8,110.5,35.1,169.5c-24.5,58.9-81,64.8-81,64.8s-47.4,12.1-36.7-22.9
				c2.4-8.1,8.3-19.7,18.7-32.8c24-30.5,20.9-82.1,18-96c-3.6-17.8-17.8-14.8-17.8-14.8l-77.8-0.7l-4.1-35.8l140-40L639.3,311.1z"/>
			<path class="st5" d="M365.8,312.8c0,0-59.8,110.5-35.1,169.5c24.5,58.9,81,64.8,81,64.8s47.4,12.1,36.7-22.9
				c-2.4-8.1-8.3-19.7-18.7-32.8c-24-30.5-20.9-82.1-18-96c3.6-17.8,19.4-15.6,19.4-15.6h76.2l4.1-35.8l-139.9-40L365.8,312.8z"/>
		</g>
		<path class="st4" d="M348.8,130.3c0,0-18.4-135.1,16.8-120.2s91.5,61.8,91.5,61.8"/>
		<g>
			<path class="st6" d="M502.2,534.6h-53.8c0,0-44.5-9.1-53.1-89.3c0,0-5.2-36.4-2.5-46.5c2.5-10,108.6-11.9,108.6-11.9h-0.4
				c0,0,106.1,1.8,108.6,11.9c2.5,10-2.5,46.5-2.5,46.5c-8.6,80.2-53.1,89.3-53.1,89.3H500"/>
			<path class="st7" d="M586,496c-3.3,0-6.8-0.2-10.3-0.4l1.2-13.1c21.8,1.9,38.3-2.5,49.3-13.3c9.3-9.2,14.2-23.1,13.2-38.4
				c-0.3-5.3-2.4-6.4-3.3-6.8c-7-3.8-25.1,2.4-35.7,8.3l-6.3-11.5c3.3-1.8,32.3-17,48.3-8.2c4.2,2.2,9.3,7.2,10,17.4
				c1.3,19.1-5,36.8-17.1,48.6C626.9,486.9,611.8,496,586,496z"/>
		</g>
		<path class="st4" d="M665.6,133.4c0,0,18.3-138.6-16.9-123.3c-35.1,15.3-91.5,63.4-91.5,63.4"/>
	</g>
</g>
</svg>
